<svg xmlns="http://www.w3.org/2000/svg" viewBox="3990 3324 285 240">
<defs>
<pattern id="keepout" width="4" height="4" patternUnits="userSpaceOnUse" patternTransform="rotate(45)">
<rect width="2" height="4" fill="#ef4444" opacity="0.35"/></pattern>
</defs>
<rect x="3990" y="3324" width="285" height="240" fill="#101827"/>
<rect x="4008.7205" y="3332.7517" width="255.9055" height="222.4407" rx="11.811" fill="#17352d" stroke="#e5e7eb" stroke-width="1"/>
<text x="4012" y="3329" fill="#f9fafb" font-size="5" font-family="sans-serif">Rev5 Bottom copper — NOT FOR FABRICATION</text>
<polyline points="4036.98,3469.949 4036.98,3477.949 4040,3481.449 4040,3497.689 4042.5,3497.689 4042.5,3514.311" fill="none" stroke="#fb7185" stroke-width="1.0" stroke-linecap="round" stroke-linejoin="round" stroke-dasharray="2 1"/>
<polyline points="4041.98,3469.949 4041.98,3476.949 4047.5,3481.449 4047.5,3493.689" fill="none" stroke="#fb7185" stroke-width="1.0" stroke-linecap="round" stroke-linejoin="round" stroke-dasharray="2 1"/>
<polyline points="4046.98,3469.949 4046.98,3475.949 4055,3481.449 4055,3497.689 4057.5,3497.689 4057.5,3514.311" fill="none" stroke="#fb7185" stroke-width="1.0" stroke-linecap="round" stroke-linejoin="round" stroke-dasharray="2 1"/>
<polyline points="4051.98,3469.949 4051.98,3474.949 4062.5,3481.449 4062.5,3493.689" fill="none" stroke="#fb7185" stroke-width="1.0" stroke-linecap="round" stroke-linejoin="round" stroke-dasharray="2 1"/>
<polyline points="4056.98,3469.949 4056.98,3473.949 4077.5,3481.449 4077.5,3497.689 4080,3497.689 4080,3514.311" fill="none" stroke="#fb7185" stroke-width="1.0" stroke-linecap="round" stroke-linejoin="round" stroke-dasharray="2 1"/>
<polyline points="4061.98,3469.949 4061.98,3472.949 4085,3481.449 4085,3493.689" fill="none" stroke="#fb7185" stroke-width="1.0" stroke-linecap="round" stroke-linejoin="round" stroke-dasharray="2 1"/>
<polyline points="4066.98,3469.949 4066.98,3471.949 4092.5,3481.449 4092.5,3497.689 4095,3497.689 4095,3514.311" fill="none" stroke="#fb7185" stroke-width="1.0" stroke-linecap="round" stroke-linejoin="round" stroke-dasharray="2 1"/>
<polyline points="4071.98,3469.949 4071.98,3470.949 4100,3481.449 4100,3493.689" fill="none" stroke="#fb7185" stroke-width="1.0" stroke-linecap="round" stroke-linejoin="round" stroke-dasharray="2 1"/>
<polyline points="4179.98,3457.949 4179.98,3465.949 4172.5,3469.449 4172.5,3489.689 4175,3489.689 4175,3506.311" fill="none" stroke="#60a5fa" stroke-width="1.0" stroke-linecap="round" stroke-linejoin="round" stroke-dasharray="2 1"/>
<polyline points="4184.98,3457.949 4184.98,3464.949 4180,3469.449 4180,3485.689" fill="none" stroke="#60a5fa" stroke-width="1.0" stroke-linecap="round" stroke-linejoin="round" stroke-dasharray="2 1"/>
<polyline points="4189.98,3457.949 4189.98,3463.949 4187.5,3469.449 4187.5,3489.689 4190,3489.689 4190,3506.311" fill="none" stroke="#60a5fa" stroke-width="1.0" stroke-linecap="round" stroke-linejoin="round" stroke-dasharray="2 1"/>
<polyline points="4194.98,3457.949 4194.98,3462.949 4195,3469.449 4195,3485.689" fill="none" stroke="#60a5fa" stroke-width="1.0" stroke-linecap="round" stroke-linejoin="round" stroke-dasharray="2 1"/>
<polyline points="4199.98,3457.949 4199.98,3461.949 4210,3469.449 4210,3489.689 4212.5,3489.689 4212.5,3506.311" fill="none" stroke="#60a5fa" stroke-width="1.0" stroke-linecap="round" stroke-linejoin="round" stroke-dasharray="2 1"/>
<polyline points="4204.98,3457.949 4204.98,3460.949 4217.5,3469.449 4217.5,3485.689" fill="none" stroke="#60a5fa" stroke-width="1.0" stroke-linecap="round" stroke-linejoin="round" stroke-dasharray="2 1"/>
<polyline points="4209.98,3457.949 4209.98,3459.949 4225,3469.449 4225,3489.689 4227.5,3489.689 4227.5,3506.311" fill="none" stroke="#60a5fa" stroke-width="1.0" stroke-linecap="round" stroke-linejoin="round" stroke-dasharray="2 1"/>
<polyline points="4214.98,3457.949 4214.98,3458.949 4232.5,3469.449 4232.5,3485.689" fill="none" stroke="#60a5fa" stroke-width="1.0" stroke-linecap="round" stroke-linejoin="round" stroke-dasharray="2 1"/>
<polyline points="4098.5,3425 4084,3409.5 4084,3378 4141.673,3378 4141.673,3353.5" fill="none" stroke="#fb7185" stroke-width="1.0" stroke-linecap="round" stroke-linejoin="round" stroke-dasharray="2 1"/>
<polyline points="4221.673,3343.5 4226.673,3348.5 4226.673,3359.5" fill="none" stroke="#60a5fa" stroke-width="1.0" stroke-linecap="round" stroke-linejoin="round" stroke-dasharray="2 1"/>
<polyline points="4231.673,3343.5 4237.673,3349.5 4237.673,3359.5" fill="none" stroke="#60a5fa" stroke-width="1.0" stroke-linecap="round" stroke-linejoin="round" stroke-dasharray="2 1"/>
<polyline points="4091.673,3343.5 4096.673,3348.5 4096.673,3359.5" fill="none" stroke="#60a5fa" stroke-width="1.0" stroke-linecap="round" stroke-linejoin="round" stroke-dasharray="2 1"/>
<polyline points="4226.673,3364.5 4226.673,3367" fill="none" stroke="#60a5fa" stroke-width="1.0" stroke-linecap="round" stroke-linejoin="round" stroke-dasharray="2 1"/>
<polyline points="4237.673,3364.5 4237.673,3385 4249,3385" fill="none" stroke="#60a5fa" stroke-width="1.0" stroke-linecap="round" stroke-linejoin="round" stroke-dasharray="2 1"/>
<polyline points="4235.02,3417.5 4239,3417.5" fill="none" stroke="#60a5fa" stroke-width="1.0" stroke-linecap="round" stroke-linejoin="round" stroke-dasharray="2 1"/>
<polyline points="4244,3417.5 4259,3417.5" fill="none" stroke="#60a5fa" stroke-width="1.0" stroke-linecap="round" stroke-linejoin="round" stroke-dasharray="2 1"/>
<polyline points="4259,3417.5 4259,3390 4216.173,3390 4211.673,3353.5" fill="none" stroke="#60a5fa" stroke-width="1.0" stroke-linecap="round" stroke-linejoin="round" stroke-dasharray="2 1"/>
<polyline points="4026.98,3466.449 4021.5,3469.449" fill="none" stroke="#fb7185" stroke-width="2.0" stroke-linecap="round" stroke-linejoin="round" stroke-dasharray="2 1"/>
<polyline points="4021.5,3469.449 4021.5,3488.449" fill="none" stroke="#fb7185" stroke-width="2.0" stroke-linecap="round" stroke-linejoin="round" stroke-dasharray="2 1"/>
<polyline points="4021.5,3474.449 4021.5,3474.449" fill="none" stroke="#fb7185" stroke-width="2.0" stroke-linecap="round" stroke-linejoin="round" stroke-dasharray="2 1"/>
<polyline points="4021.5,3482.449 4020,3482.449" fill="none" stroke="#fb7185" stroke-width="2.0" stroke-linecap="round" stroke-linejoin="round" stroke-dasharray="2 1"/>
<polyline points="4021.5,3488.449 4020,3488.449" fill="none" stroke="#fb7185" stroke-width="2.0" stroke-linecap="round" stroke-linejoin="round" stroke-dasharray="2 1"/>
<polyline points="4021.5,3474.949 4024,3474.949" fill="none" stroke="#fb7185" stroke-width="2.0" stroke-linecap="round" stroke-linejoin="round" stroke-dasharray="2 1"/>
<polyline points="4169.98,3454.449 4162,3457.449" fill="none" stroke="#60a5fa" stroke-width="2.0" stroke-linecap="round" stroke-linejoin="round" stroke-dasharray="2 1"/>
<polyline points="4162,3457.449 4162,3476.449" fill="none" stroke="#60a5fa" stroke-width="2.0" stroke-linecap="round" stroke-linejoin="round" stroke-dasharray="2 1"/>
<polyline points="4162,3462.449 4162,3462.449" fill="none" stroke="#60a5fa" stroke-width="2.0" stroke-linecap="round" stroke-linejoin="round" stroke-dasharray="2 1"/>
<polyline points="4162,3470.449 4160.5,3470.449" fill="none" stroke="#60a5fa" stroke-width="2.0" stroke-linecap="round" stroke-linejoin="round" stroke-dasharray="2 1"/>
<polyline points="4162,3476.449 4160.5,3476.449" fill="none" stroke="#60a5fa" stroke-width="2.0" stroke-linecap="round" stroke-linejoin="round" stroke-dasharray="2 1"/>
<polyline points="4162,3462.949 4169,3462.949" fill="none" stroke="#60a5fa" stroke-width="2.0" stroke-linecap="round" stroke-linejoin="round" stroke-dasharray="2 1"/>
<rect x="4038.573" y="3349.9567" width="6.2" height="7.0866" rx="0.35" fill="#c084fc" fill-opacity="0.72" stroke="#f8fafc" stroke-width="0.18"/>
<rect x="4038.1297" y="3339.9567" width="7.0866" height="7.0866" rx="0.35" fill="#facc15" fill-opacity="0.72" stroke="#f8fafc" stroke-width="0.18"/>
<rect x="4048.1297" y="3349.9567" width="7.0866" height="7.0866" rx="0.35" fill="#c084fc" fill-opacity="0.72" stroke="#f8fafc" stroke-width="0.18"/>
<rect x="4048.1297" y="3339.9567" width="7.0866" height="7.0866" rx="0.35" fill="#facc15" fill-opacity="0.72" stroke="#f8fafc" stroke-width="0.18"/>
<rect x="4058.1297" y="3349.9567" width="7.0866" height="7.0866" rx="0.35" fill="#c084fc" fill-opacity="0.72" stroke="#f8fafc" stroke-width="0.18"/>
<rect x="4058.1297" y="3339.9567" width="7.0866" height="7.0866" rx="0.35" fill="#94a3b8" fill-opacity="0.72" stroke="#f8fafc" stroke-width="0.18"/>
<rect x="4068.1297" y="3349.9567" width="7.0866" height="7.0866" rx="0.35" fill="#c084fc" fill-opacity="0.72" stroke="#f8fafc" stroke-width="0.18"/>
<rect x="4068.1297" y="3339.9567" width="7.0866" height="7.0866" rx="0.35" fill="#c084fc" fill-opacity="0.72" stroke="#f8fafc" stroke-width="0.18"/>
<rect x="4078.1297" y="3349.9567" width="7.0866" height="7.0866" rx="0.35" fill="#94a3b8" fill-opacity="0.72" stroke="#f8fafc" stroke-width="0.18"/>
<rect x="4078.1297" y="3339.9567" width="7.0866" height="7.0866" rx="0.35" fill="#c084fc" fill-opacity="0.72" stroke="#f8fafc" stroke-width="0.18"/>
<rect x="4088.1297" y="3349.9567" width="7.0866" height="7.0866" rx="0.35" fill="#c084fc" fill-opacity="0.72" stroke="#f8fafc" stroke-width="0.18"/>
<rect x="4088.1297" y="3339.9567" width="7.0866" height="7.0866" rx="0.35" fill="#60a5fa" fill-opacity="0.72" stroke="#f8fafc" stroke-width="0.18"/>
<rect x="4098.1296999999995" y="3349.9567" width="7.0866" height="7.0866" rx="0.35" fill="#c084fc" fill-opacity="0.72" stroke="#f8fafc" stroke-width="0.18"/>
<rect x="4098.1296999999995" y="3339.9567" width="7.0866" height="7.0866" rx="0.35" fill="#94a3b8" fill-opacity="0.72" stroke="#f8fafc" stroke-width="0.18"/>
<rect x="4108.1296999999995" y="3349.9567" width="7.0866" height="7.0866" rx="0.35" fill="#c084fc" fill-opacity="0.72" stroke="#f8fafc" stroke-width="0.18"/>
<rect x="4108.1296999999995" y="3339.9567" width="7.0866" height="7.0866" rx="0.35" fill="#c084fc" fill-opacity="0.72" stroke="#f8fafc" stroke-width="0.18"/>
<rect x="4118.1296999999995" y="3349.9567" width="7.0866" height="7.0866" rx="0.35" fill="#c084fc" fill-opacity="0.72" stroke="#f8fafc" stroke-width="0.18"/>
<rect x="4118.1296999999995" y="3339.9567" width="7.0866" height="7.0866" rx="0.35" fill="#c084fc" fill-opacity="0.72" stroke="#f8fafc" stroke-width="0.18"/>
<rect x="4128.1296999999995" y="3349.9567" width="7.0866" height="7.0866" rx="0.35" fill="#fb7185" fill-opacity="0.72" stroke="#f8fafc" stroke-width="0.18"/>
<rect x="4128.1296999999995" y="3339.9567" width="7.0866" height="7.0866" rx="0.35" fill="#94a3b8" fill-opacity="0.72" stroke="#f8fafc" stroke-width="0.18"/>
<rect x="4138.1296999999995" y="3349.9567" width="7.0866" height="7.0866" rx="0.35" fill="#fb7185" fill-opacity="0.72" stroke="#f8fafc" stroke-width="0.18"/>
<rect x="4138.1296999999995" y="3339.9567" width="7.0866" height="7.0866" rx="0.35" fill="#c084fc" fill-opacity="0.72" stroke="#f8fafc" stroke-width="0.18"/>
<rect x="4148.1296999999995" y="3349.9567" width="7.0866" height="7.0866" rx="0.35" fill="#fb7185" fill-opacity="0.72" stroke="#f8fafc" stroke-width="0.18"/>
<rect x="4148.1296999999995" y="3339.9567" width="7.0866" height="7.0866" rx="0.35" fill="#fb7185" fill-opacity="0.72" stroke="#f8fafc" stroke-width="0.18"/>
<rect x="4158.1296999999995" y="3349.9567" width="7.0866" height="7.0866" rx="0.35" fill="#94a3b8" fill-opacity="0.72" stroke="#f8fafc" stroke-width="0.18"/>
<rect x="4158.1296999999995" y="3339.9567" width="7.0866" height="7.0866" rx="0.35" fill="#c084fc" fill-opacity="0.72" stroke="#f8fafc" stroke-width="0.18"/>
<rect x="4168.1296999999995" y="3349.9567" width="7.0866" height="7.0866" rx="0.35" fill="#c084fc" fill-opacity="0.72" stroke="#f8fafc" stroke-width="0.18"/>
<rect x="4168.1296999999995" y="3339.9567" width="7.0866" height="7.0866" rx="0.35" fill="#c084fc" fill-opacity="0.72" stroke="#f8fafc" stroke-width="0.18"/>
<rect x="4178.1296999999995" y="3349.9567" width="7.0866" height="7.0866" rx="0.35" fill="#c084fc" fill-opacity="0.72" stroke="#f8fafc" stroke-width="0.18"/>
<rect x="4178.1296999999995" y="3339.9567" width="7.0866" height="7.0866" rx="0.35" fill="#94a3b8" fill-opacity="0.72" stroke="#f8fafc" stroke-width="0.18"/>
<rect x="4188.1296999999995" y="3349.9567" width="7.0866" height="7.0866" rx="0.35" fill="#c084fc" fill-opacity="0.72" stroke="#f8fafc" stroke-width="0.18"/>
<rect x="4188.1296999999995" y="3339.9567" width="7.0866" height="7.0866" rx="0.35" fill="#c084fc" fill-opacity="0.72" stroke="#f8fafc" stroke-width="0.18"/>
<rect x="4198.1296999999995" y="3349.9567" width="7.0866" height="7.0866" rx="0.35" fill="#c084fc" fill-opacity="0.72" stroke="#f8fafc" stroke-width="0.18"/>
<rect x="4198.1296999999995" y="3339.9567" width="7.0866" height="7.0866" rx="0.35" fill="#94a3b8" fill-opacity="0.72" stroke="#f8fafc" stroke-width="0.18"/>
<rect x="4208.1296999999995" y="3349.9567" width="7.0866" height="7.0866" rx="0.35" fill="#60a5fa" fill-opacity="0.72" stroke="#f8fafc" stroke-width="0.18"/>
<rect x="4208.1296999999995" y="3339.9567" width="7.0866" height="7.0866" rx="0.35" fill="#c084fc" fill-opacity="0.72" stroke="#f8fafc" stroke-width="0.18"/>
<rect x="4218.1296999999995" y="3349.9567" width="7.0866" height="7.0866" rx="0.35" fill="#c084fc" fill-opacity="0.72" stroke="#f8fafc" stroke-width="0.18"/>
<rect x="4218.1296999999995" y="3339.9567" width="7.0866" height="7.0866" rx="0.35" fill="#60a5fa" fill-opacity="0.72" stroke="#f8fafc" stroke-width="0.18"/>
<rect x="4228.1296999999995" y="3349.9567" width="7.0866" height="7.0866" rx="0.35" fill="#94a3b8" fill-opacity="0.72" stroke="#f8fafc" stroke-width="0.18"/>
<rect x="4228.1296999999995" y="3339.9567" width="7.0866" height="7.0866" rx="0.35" fill="#60a5fa" fill-opacity="0.72" stroke="#f8fafc" stroke-width="0.18"/>
<rect x="4010.2953" y="3529.2093000000004" width="24.4094" height="24.4094" rx="0.35" fill="#c084fc" fill-opacity="0.72" stroke="#f8fafc" stroke-width="0.18"/>
<rect x="4010.2953" y="3336.2953" width="24.4094" height="24.4094" rx="0.35" fill="#c084fc" fill-opacity="0.72" stroke="#f8fafc" stroke-width="0.18"/>
<rect x="4238.641299999999" y="3336.2953" width="24.4094" height="24.4094" rx="0.35" fill="#c084fc" fill-opacity="0.72" stroke="#f8fafc" stroke-width="0.18"/>
<rect x="4238.641299999999" y="3529.2093000000004" width="24.4094" height="24.4094" rx="0.35" fill="#c084fc" fill-opacity="0.72" stroke="#f8fafc" stroke-width="0.18"/>
<rect x="4225.473" y="3358.5" width="2.4" height="2.0" rx="0.35" fill="#60a5fa" fill-opacity="0.72" stroke="#f8fafc" stroke-width="0.18"/>
<rect x="4225.473" y="3363.5" width="2.4" height="2.0" rx="0.35" fill="#60a5fa" fill-opacity="0.72" stroke="#f8fafc" stroke-width="0.18"/>
<rect x="4236.473" y="3358.5" width="2.4" height="2.0" rx="0.35" fill="#60a5fa" fill-opacity="0.72" stroke="#f8fafc" stroke-width="0.18"/>
<rect x="4236.473" y="3363.5" width="2.4" height="2.0" rx="0.35" fill="#60a5fa" fill-opacity="0.72" stroke="#f8fafc" stroke-width="0.18"/>
<rect x="4095.473" y="3358.5" width="2.4" height="2.0" rx="0.35" fill="#60a5fa" fill-opacity="0.72" stroke="#f8fafc" stroke-width="0.18"/>
<rect x="4095.473" y="3363.5" width="2.4" height="2.0" rx="0.35" fill="#60a5fa" fill-opacity="0.72" stroke="#f8fafc" stroke-width="0.18"/>
<rect x="4238.0" y="3416.3" width="2.0" height="2.4" rx="0.35" fill="#60a5fa" fill-opacity="0.72" stroke="#f8fafc" stroke-width="0.18"/>
<rect x="4243.0" y="3416.3" width="2.0" height="2.4" rx="0.35" fill="#60a5fa" fill-opacity="0.72" stroke="#f8fafc" stroke-width="0.18"/>
<circle cx="4036.98" cy="3469.949" r="1.2" fill="#fb7185" fill-opacity="0.75" stroke="#ffffff" stroke-width="0.5"/>
<circle cx="4042.5" cy="3514.311" r="1.2" fill="#fb7185" fill-opacity="0.75" stroke="#ffffff" stroke-width="0.5"/>
<circle cx="4041.98" cy="3469.949" r="1.2" fill="#fb7185" fill-opacity="0.75" stroke="#ffffff" stroke-width="0.5"/>
<circle cx="4047.5" cy="3493.689" r="1.2" fill="#fb7185" fill-opacity="0.75" stroke="#ffffff" stroke-width="0.5"/>
<circle cx="4046.98" cy="3469.949" r="1.2" fill="#fb7185" fill-opacity="0.75" stroke="#ffffff" stroke-width="0.5"/>
<circle cx="4057.5" cy="3514.311" r="1.2" fill="#fb7185" fill-opacity="0.75" stroke="#ffffff" stroke-width="0.5"/>
<circle cx="4051.98" cy="3469.949" r="1.2" fill="#fb7185" fill-opacity="0.75" stroke="#ffffff" stroke-width="0.5"/>
<circle cx="4062.5" cy="3493.689" r="1.2" fill="#fb7185" fill-opacity="0.75" stroke="#ffffff" stroke-width="0.5"/>
<circle cx="4056.98" cy="3469.949" r="1.2" fill="#fb7185" fill-opacity="0.75" stroke="#ffffff" stroke-width="0.5"/>
<circle cx="4080" cy="3514.311" r="1.2" fill="#fb7185" fill-opacity="0.75" stroke="#ffffff" stroke-width="0.5"/>
<circle cx="4061.98" cy="3469.949" r="1.2" fill="#fb7185" fill-opacity="0.75" stroke="#ffffff" stroke-width="0.5"/>
<circle cx="4085" cy="3493.689" r="1.2" fill="#fb7185" fill-opacity="0.75" stroke="#ffffff" stroke-width="0.5"/>
<circle cx="4066.98" cy="3469.949" r="1.2" fill="#fb7185" fill-opacity="0.75" stroke="#ffffff" stroke-width="0.5"/>
<circle cx="4095" cy="3514.311" r="1.2" fill="#fb7185" fill-opacity="0.75" stroke="#ffffff" stroke-width="0.5"/>
<circle cx="4071.98" cy="3469.949" r="1.2" fill="#fb7185" fill-opacity="0.75" stroke="#ffffff" stroke-width="0.5"/>
<circle cx="4100" cy="3493.689" r="1.2" fill="#fb7185" fill-opacity="0.75" stroke="#ffffff" stroke-width="0.5"/>
<circle cx="4179.98" cy="3457.949" r="1.2" fill="#60a5fa" fill-opacity="0.75" stroke="#ffffff" stroke-width="0.5"/>
<circle cx="4175" cy="3506.311" r="1.2" fill="#60a5fa" fill-opacity="0.75" stroke="#ffffff" stroke-width="0.5"/>
<circle cx="4184.98" cy="3457.949" r="1.2" fill="#60a5fa" fill-opacity="0.75" stroke="#ffffff" stroke-width="0.5"/>
<circle cx="4180" cy="3485.689" r="1.2" fill="#60a5fa" fill-opacity="0.75" stroke="#ffffff" stroke-width="0.5"/>
<circle cx="4189.98" cy="3457.949" r="1.2" fill="#60a5fa" fill-opacity="0.75" stroke="#ffffff" stroke-width="0.5"/>
<circle cx="4190" cy="3506.311" r="1.2" fill="#60a5fa" fill-opacity="0.75" stroke="#ffffff" stroke-width="0.5"/>
<circle cx="4194.98" cy="3457.949" r="1.2" fill="#60a5fa" fill-opacity="0.75" stroke="#ffffff" stroke-width="0.5"/>
<circle cx="4195" cy="3485.689" r="1.2" fill="#60a5fa" fill-opacity="0.75" stroke="#ffffff" stroke-width="0.5"/>
<circle cx="4199.98" cy="3457.949" r="1.2" fill="#60a5fa" fill-opacity="0.75" stroke="#ffffff" stroke-width="0.5"/>
<circle cx="4212.5" cy="3506.311" r="1.2" fill="#60a5fa" fill-opacity="0.75" stroke="#ffffff" stroke-width="0.5"/>
<circle cx="4204.98" cy="3457.949" r="1.2" fill="#60a5fa" fill-opacity="0.75" stroke="#ffffff" stroke-width="0.5"/>
<circle cx="4217.5" cy="3485.689" r="1.2" fill="#60a5fa" fill-opacity="0.75" stroke="#ffffff" stroke-width="0.5"/>
<circle cx="4209.98" cy="3457.949" r="1.2" fill="#60a5fa" fill-opacity="0.75" stroke="#ffffff" stroke-width="0.5"/>
<circle cx="4227.5" cy="3506.311" r="1.2" fill="#60a5fa" fill-opacity="0.75" stroke="#ffffff" stroke-width="0.5"/>
<circle cx="4214.98" cy="3457.949" r="1.2" fill="#60a5fa" fill-opacity="0.75" stroke="#ffffff" stroke-width="0.5"/>
<circle cx="4232.5" cy="3485.689" r="1.2" fill="#60a5fa" fill-opacity="0.75" stroke="#ffffff" stroke-width="0.5"/>
<circle cx="4075" cy="3514.311" r="1.2" fill="#fb7185" fill-opacity="0.75" stroke="#ffffff" stroke-width="0.5"/>
<circle cx="4090" cy="3514.311" r="1.2" fill="#fb7185" fill-opacity="0.75" stroke="#ffffff" stroke-width="0.5"/>
<circle cx="4095" cy="3493.689" r="1.2" fill="#fb7185" fill-opacity="0.75" stroke="#ffffff" stroke-width="0.5"/>
<circle cx="4080" cy="3493.689" r="1.2" fill="#fb7185" fill-opacity="0.75" stroke="#ffffff" stroke-width="0.5"/>
<circle cx="4037.5" cy="3514.311" r="1.2" fill="#fb7185" fill-opacity="0.75" stroke="#ffffff" stroke-width="0.5"/>
<circle cx="4052.5" cy="3514.311" r="1.2" fill="#fb7185" fill-opacity="0.75" stroke="#ffffff" stroke-width="0.5"/>
<circle cx="4057.5" cy="3493.689" r="1.2" fill="#fb7185" fill-opacity="0.75" stroke="#ffffff" stroke-width="0.5"/>
<circle cx="4042.5" cy="3493.689" r="1.2" fill="#fb7185" fill-opacity="0.75" stroke="#ffffff" stroke-width="0.5"/>
<circle cx="4112" cy="3469.5" r="1.2" fill="#fb7185" fill-opacity="0.75" stroke="#ffffff" stroke-width="0.5"/>
<circle cx="4207.5" cy="3506.311" r="1.2" fill="#60a5fa" fill-opacity="0.75" stroke="#ffffff" stroke-width="0.5"/>
<circle cx="4222.5" cy="3506.311" r="1.2" fill="#60a5fa" fill-opacity="0.75" stroke="#ffffff" stroke-width="0.5"/>
<circle cx="4227.5" cy="3485.689" r="1.2" fill="#60a5fa" fill-opacity="0.75" stroke="#ffffff" stroke-width="0.5"/>
<circle cx="4212.5" cy="3485.689" r="1.2" fill="#60a5fa" fill-opacity="0.75" stroke="#ffffff" stroke-width="0.5"/>
<circle cx="4170" cy="3506.311" r="1.2" fill="#60a5fa" fill-opacity="0.75" stroke="#ffffff" stroke-width="0.5"/>
<circle cx="4185" cy="3506.311" r="1.2" fill="#60a5fa" fill-opacity="0.75" stroke="#ffffff" stroke-width="0.5"/>
<circle cx="4190" cy="3485.689" r="1.2" fill="#60a5fa" fill-opacity="0.75" stroke="#ffffff" stroke-width="0.5"/>
<circle cx="4175" cy="3485.689" r="1.2" fill="#60a5fa" fill-opacity="0.75" stroke="#ffffff" stroke-width="0.5"/>
<circle cx="4249" cy="3462.5" r="1.2" fill="#60a5fa" fill-opacity="0.75" stroke="#ffffff" stroke-width="0.5"/>
<circle cx="4098.5" cy="3425" r="1.2" fill="#fb7185" fill-opacity="0.75" stroke="#ffffff" stroke-width="0.5"/>
<circle cx="4096.673" cy="3364.5" r="1.2" fill="#60a5fa" fill-opacity="0.75" stroke="#ffffff" stroke-width="0.5"/>
<circle cx="4235.02" cy="3432.5" r="1.2" fill="#60a5fa" fill-opacity="0.75" stroke="#ffffff" stroke-width="0.5"/>
<circle cx="4226.673" cy="3367" r="1.2" fill="#60a5fa" fill-opacity="0.75" stroke="#ffffff" stroke-width="0.5"/>
<circle cx="4249" cy="3385" r="1.2" fill="#60a5fa" fill-opacity="0.75" stroke="#ffffff" stroke-width="0.5"/>
<circle cx="4259" cy="3417.5" r="1.2" fill="#60a5fa" fill-opacity="0.75" stroke="#ffffff" stroke-width="0.5"/>
<circle cx="4235.02" cy="3417.5" r="1.2" fill="#60a5fa" fill-opacity="0.75" stroke="#ffffff" stroke-width="0.5"/>
<circle cx="4031.98" cy="3474.949" r="1.2" fill="#94a3b8" fill-opacity="0.75" stroke="#ffffff" stroke-width="0.5"/>
<circle cx="4174.98" cy="3462.949" r="1.2" fill="#94a3b8" fill-opacity="0.75" stroke="#ffffff" stroke-width="0.5"/>
<circle cx="4114.5" cy="3476.5" r="1.2" fill="#94a3b8" fill-opacity="0.75" stroke="#ffffff" stroke-width="0.5"/>
<circle cx="4101.5" cy="3476.5" r="1.2" fill="#94a3b8" fill-opacity="0.75" stroke="#ffffff" stroke-width="0.5"/>
<circle cx="4251.5" cy="3469.5" r="1.2" fill="#94a3b8" fill-opacity="0.75" stroke="#ffffff" stroke-width="0.5"/>
<circle cx="4238.5" cy="3469.5" r="1.2" fill="#94a3b8" fill-opacity="0.75" stroke="#ffffff" stroke-width="0.5"/>
<circle cx="4075" cy="3486.189" r="1.2" fill="#94a3b8" fill-opacity="0.75" stroke="#ffffff" stroke-width="0.5"/>
<circle cx="4105" cy="3514.311" r="1.2" fill="#94a3b8" fill-opacity="0.75" stroke="#ffffff" stroke-width="0.5"/>
<circle cx="4037.5" cy="3486.189" r="1.2" fill="#94a3b8" fill-opacity="0.75" stroke="#ffffff" stroke-width="0.5"/>
<circle cx="4067.5" cy="3514.311" r="1.2" fill="#94a3b8" fill-opacity="0.75" stroke="#ffffff" stroke-width="0.5"/>
<circle cx="4207.5" cy="3478.189" r="1.2" fill="#94a3b8" fill-opacity="0.75" stroke="#ffffff" stroke-width="0.5"/>
<circle cx="4237.5" cy="3506.311" r="1.2" fill="#94a3b8" fill-opacity="0.75" stroke="#ffffff" stroke-width="0.5"/>
<circle cx="4170" cy="3478.189" r="1.2" fill="#94a3b8" fill-opacity="0.75" stroke="#ffffff" stroke-width="0.5"/>
<circle cx="4200" cy="3506.311" r="1.2" fill="#94a3b8" fill-opacity="0.75" stroke="#ffffff" stroke-width="0.5"/>
<circle cx="4068.5" cy="3522" r="1.2" fill="#94a3b8" fill-opacity="0.75" stroke="#ffffff" stroke-width="0.5"/>
<circle cx="4201" cy="3514" r="1.2" fill="#94a3b8" fill-opacity="0.75" stroke="#ffffff" stroke-width="0.5"/>
<circle cx="4116" cy="3425" r="1.2" fill="#94a3b8" fill-opacity="0.75" stroke="#ffffff" stroke-width="0.5"/>
<circle cx="4116" cy="3434.5" r="1.2" fill="#94a3b8" fill-opacity="0.75" stroke="#ffffff" stroke-width="0.5"/>
<circle cx="4116" cy="3439.5" r="1.2" fill="#94a3b8" fill-opacity="0.75" stroke="#ffffff" stroke-width="0.5"/>
<circle cx="4116" cy="3444.5" r="1.2" fill="#94a3b8" fill-opacity="0.75" stroke="#ffffff" stroke-width="0.5"/>
<circle cx="4262" cy="3411.5" r="1.2" fill="#94a3b8" fill-opacity="0.75" stroke="#ffffff" stroke-width="0.5"/>
<circle cx="4262" cy="3405.5" r="1.2" fill="#94a3b8" fill-opacity="0.75" stroke="#ffffff" stroke-width="0.5"/>
<circle cx="4262" cy="3442" r="1.2" fill="#94a3b8" fill-opacity="0.75" stroke="#ffffff" stroke-width="0.5"/>
<circle cx="4262" cy="3448" r="1.2" fill="#94a3b8" fill-opacity="0.75" stroke="#ffffff" stroke-width="0.5"/>
<circle cx="4026.98" cy="3466.449" r="1.2" fill="#fb7185" fill-opacity="0.75" stroke="#ffffff" stroke-width="0.5"/>
<circle cx="4021.5" cy="3474.449" r="1.2" fill="#fb7185" fill-opacity="0.75" stroke="#ffffff" stroke-width="0.5"/>
<circle cx="4020" cy="3482.449" r="1.2" fill="#fb7185" fill-opacity="0.75" stroke="#ffffff" stroke-width="0.5"/>
<circle cx="4020" cy="3488.449" r="1.2" fill="#fb7185" fill-opacity="0.75" stroke="#ffffff" stroke-width="0.5"/>
<circle cx="4024" cy="3474.949" r="1.2" fill="#fb7185" fill-opacity="0.75" stroke="#ffffff" stroke-width="0.5"/>
<circle cx="4013.5" cy="3474.449" r="1.2" fill="#94a3b8" fill-opacity="0.75" stroke="#ffffff" stroke-width="0.5"/>
<circle cx="4015" cy="3482.449" r="1.2" fill="#94a3b8" fill-opacity="0.75" stroke="#ffffff" stroke-width="0.5"/>
<circle cx="4015" cy="3488.449" r="1.2" fill="#94a3b8" fill-opacity="0.75" stroke="#ffffff" stroke-width="0.5"/>
<circle cx="4029" cy="3485.949" r="1.2" fill="#94a3b8" fill-opacity="0.75" stroke="#ffffff" stroke-width="0.5"/>
<circle cx="4169.98" cy="3454.449" r="1.2" fill="#60a5fa" fill-opacity="0.75" stroke="#ffffff" stroke-width="0.5"/>
<circle cx="4162" cy="3462.449" r="1.2" fill="#60a5fa" fill-opacity="0.75" stroke="#ffffff" stroke-width="0.5"/>
<circle cx="4160.5" cy="3470.449" r="1.2" fill="#60a5fa" fill-opacity="0.75" stroke="#ffffff" stroke-width="0.5"/>
<circle cx="4160.5" cy="3476.449" r="1.2" fill="#60a5fa" fill-opacity="0.75" stroke="#ffffff" stroke-width="0.5"/>
<circle cx="4169" cy="3462.949" r="1.2" fill="#60a5fa" fill-opacity="0.75" stroke="#ffffff" stroke-width="0.5"/>
<circle cx="4154" cy="3462.449" r="1.2" fill="#94a3b8" fill-opacity="0.75" stroke="#ffffff" stroke-width="0.5"/>
<circle cx="4155.5" cy="3470.449" r="1.2" fill="#94a3b8" fill-opacity="0.75" stroke="#ffffff" stroke-width="0.5"/>
<circle cx="4155.5" cy="3476.449" r="1.2" fill="#94a3b8" fill-opacity="0.75" stroke="#ffffff" stroke-width="0.5"/>
<circle cx="4167" cy="3473.949" r="1.2" fill="#94a3b8" fill-opacity="0.75" stroke="#ffffff" stroke-width="0.5"/>
<text x="4012" y="3542" fill="#f9fafb" font-size="4" font-family="sans-serif">Bottom copper: routed copper, pads, vias, and plane fill</text>
</svg>
